<?xml version="1.0" standalone="no"?>
<!DOCTYPE svg PUBLIC "-//W3C//DTD SVG 20010904//EN"
 "http://www.w3.org/TR/2001/REC-SVG-20010904/DTD/svg10.dtd">
<svg version="1.0" xmlns="http://www.w3.org/2000/svg"
 width="500.000000pt" height="500.000000pt" viewBox="0 0 500.000000 500.000000"
 preserveAspectRatio="xMidYMid meet">

<g transform="translate(0.000000,500.000000) scale(0.100000,-0.100000)"
fill="#000000" stroke="none">
<path d="M2791 3449 c-13 -11 -21 -22 -18 -25 8 -8 25 4 37 27 13 24 11 23
-19 -2z"/>
<path d="M397 3283 c-3 -5 -8 -35 -12 -68 -9 -80 -30 -149 -55 -184 -11 -16
-20 -33 -20 -38 0 -4 -15 -15 -32 -23 -18 -8 -41 -28 -52 -43 -20 -27 -21 -44
-24 -345 -3 -340 -2 -349 49 -398 l30 -29 267 -3 c266 -3 268 -3 302 20 68 45
70 57 70 398 0 344 -2 356 -73 395 -21 11 -37 24 -37 28 0 5 -9 20 -20 34 -24
31 -40 83 -54 183 l-11 75 -162 3 c-89 1 -164 -1 -166 -5z m191 -290 c-16 -2
-40 -2 -55 0 -16 2 -3 4 27 4 30 0 43 -2 28 -4z m-278 -44 c-14 -6 -34 -18
-45 -27 -12 -9 -8 -5 7 11 16 15 36 27 46 26 12 0 9 -3 -8 -10z m514 2 c4 -5
-3 -7 -14 -4 -23 6 -26 13 -6 13 8 0 17 -4 20 -9z m66 -74 c0 -7 -6 -3 -12 8
-6 11 -16 27 -22 35 -6 9 -1 5 12 -8 12 -13 22 -28 22 -35z m-663 -454 c-1
-82 -3 -15 -3 147 0 162 2 229 3 148 2 -82 2 -214 0 -295z m456 -250 c-62 -2
-165 -2 -230 0 -65 1 -14 3 112 3 127 0 180 -2 118 -3z"/>
<path d="M3762 3147 l-22 -23 0 -552 0 -551 22 -15 c18 -13 55 -16 190 -16
100 0 169 -4 173 -10 3 -5 25 -10 47 -10 l41 0 -7 -82 c-27 -330 -191 -713
-418 -978 -185 -216 -466 -399 -746 -486 l-42 -13 6 42 6 42 -21 -25 c-32 -39
-83 -110 -78 -110 6 0 122 -21 142 -26 15 -4 11 3 -14 25 -19 17 -33 32 -30
34 2 2 45 18 94 36 632 235 1048 785 1120 1484 l6 57 59 0 c56 0 58 1 69 31 7
22 11 208 11 580 0 536 0 549 -20 569 -19 19 -33 20 -293 20 -273 0 -274 0
-295 -23z m358 -22 c0 -12 -14 -15 -65 -15 -51 0 -65 3 -65 15 0 12 14 15 65
15 51 0 65 -3 65 -15z m43 -55 l157 0 0 -460 0 -460 -262 2 -263 3 -3 449 c-2
346 1 452 10 464 10 12 30 14 108 8 52 -3 166 -6 253 -6z m-82 -960 c29 -16
26 -67 -5 -81 -34 -16 -66 3 -66 41 0 41 33 60 71 40z"/>
<path d="M4028 3123 c18 -2 45 -2 60 0 15 2 0 4 -33 4 -33 0 -45 -2 -27 -4z"/>
<path d="M4032 2098 c-28 -28 -1 -75 38 -63 33 11 21 75 -15 75 -6 0 -16 -5
-23 -12z"/>
<path d="M1940 2835 c-41 -30 -113 -81 -160 -115 l-84 -60 -86 0 c-123 0 -125
-3 -134 -140 -6 -105 -5 -112 19 -158 14 -26 25 -63 25 -83 0 -90 58 -179 145
-220 58 -28 66 -29 211 -29 192 0 240 13 306 80 58 60 59 64 97 328 9 59 32
86 42 49 3 -12 9 -76 13 -142 11 -171 48 -244 151 -291 46 -22 63 -24 216 -24
121 0 179 4 218 16 59 17 121 68 145 118 15 32 52 199 62 276 2 19 7 47 10 62
7 36 -20 86 -51 94 -14 3 -115 71 -225 150 l-200 143 -97 -19 c-171 -33 -189
-47 -137 -101 26 -27 28 -27 119 -22 l94 6 59 -57 c33 -31 68 -63 78 -71 17
-12 -41 -14 -436 -14 l-455 0 78 73 78 73 52 -4 c29 -2 71 -5 95 -7 39 -3 45
0 69 30 31 41 26 59 -19 67 -18 3 -75 15 -127 26 -52 12 -95 21 -95 21 -1 -1
-35 -25 -76 -55z m254 -29 c52 -12 17 -20 -76 -17 l-91 3 -73 -73 c-69 -69
-74 -72 -99 -61 -15 7 -31 10 -36 7 -5 -4 -16 -2 -24 3 -13 6 11 27 107 94
l122 85 71 -18 c38 -9 83 -20 99 -23z m686 -115 c52 -35 99 -68 105 -73 5 -4
-25 -8 -68 -8 l-76 0 -95 91 -96 91 -89 -3 c-100 -4 -125 4 -60 21 24 6 66 16
94 24 l50 13 70 -46 c38 -25 113 -74 165 -110z m-1036 -81 c15 -15 20 -184 6
-210 -12 -23 -14 -23 -161 -18 -97 4 -154 10 -164 18 -20 16 -22 199 -2 219 9
10 45 12 162 7 82 -3 153 -10 159 -16z m1234 -55 c-2 -6 -204 -10 -523 -11
-550 0 -665 3 -665 17 0 10 1143 18 1173 9 10 -4 17 -10 15 -15z m-831 -58 c7
-7 -26 -227 -42 -283 -16 -54 -70 -114 -123 -136 -17 -7 -92 -10 -195 -9 -133
1 -175 4 -200 17 -72 37 -113 97 -123 186 -3 29 -6 58 -5 63 1 11 9 11 179 14
138 1 152 10 152 96 l0 54 98 3 c116 4 253 1 259 -5z m659 0 c2 -2 -11 -21
-29 -43 -39 -46 -87 -115 -87 -126 0 -32 69 33 143 134 16 23 35 38 48 38 18
0 15 -6 -23 -51 -88 -104 -161 -210 -151 -220 11 -11 98 83 188 203 35 47 57
67 73 68 16 0 22 -6 22 -22 0 -49 -41 -262 -56 -294 -19 -39 -74 -91 -113
-106 -14 -5 -102 -9 -200 -9 -229 2 -271 19 -321 127 -17 36 -40 202 -40 292
l0 24 271 -6 c149 -3 273 -7 275 -9z"/>
<path d="M1734 2579 c-77 -28 -55 -139 28 -139 32 0 78 41 78 70 0 45 -62 86
-106 69z m54 -65 c2 -21 -2 -33 -12 -37 -26 -10 -46 4 -46 32 0 34 8 43 35 39
14 -2 21 -12 23 -34z"/>
<path d="M1545 2520 c-10 -17 5 -30 33 -30 42 0 72 11 72 26 0 17 -95 20 -105
4z"/>
<path d="M2711 2245 c-33 -38 -40 -65 -17 -65 18 0 76 66 76 85 0 26 -27 16
-59 -20z"/>
<path d="M930 2766 c0 -31 5 -56 10 -56 6 0 10 22 10 49 0 28 -4 53 -10 56 -6
4 -10 -15 -10 -49z"/>
<path d="M934 2460 c0 -58 1 -81 3 -52 2 28 2 76 0 105 -2 28 -3 5 -3 -53z"/>
<path d="M335 2098 c30 -55 44 -108 50 -193 3 -38 9 -71 14 -74 4 -4 18 -53
31 -111 61 -288 216 -590 424 -825 120 -136 335 -294 511 -375 87 -41 306
-114 370 -125 70 -11 71 -13 40 -45 -16 -17 -23 -30 -16 -30 21 0 141 34 141
40 0 3 -27 32 -60 65 l-61 60 15 -42 c15 -41 14 -43 -5 -43 -11 0 -56 9 -99
20 -507 130 -888 445 -1116 925 -88 185 -168 471 -140 495 7 5 75 11 151 12
l140 3 12 84 c7 53 22 105 41 142 l29 59 -248 0 -248 0 24 -42z"/>
<path d="M3015 2080 c-4 -6 6 -10 24 -10 16 0 33 5 36 10 4 6 -6 10 -24 10
-16 0 -33 -4 -36 -10z"/>
<path d="M3124 2075 c27 -21 53 -20 36 0 -7 8 -22 15 -34 15 -21 -1 -21 -1 -2
-15z"/>
<path d="M3190 2033 c0 -5 9 -19 20 -33 21 -26 27 -12 10 21 -10 19 -30 26
-30 12z"/>
<path d="M3244 1930 c3 -14 6 -28 6 -32 0 -5 5 -8 11 -8 12 0 2 39 -13 55 -7
7 -9 2 -4 -15z"/>
<path d="M2670 1856 c0 -8 61 -12 66 -4 3 4 -11 8 -30 8 -20 0 -36 -2 -36 -4z"/>
<path d="M2590 1840 c-26 -16 -3 -22 27 -6 23 13 24 15 8 15 -11 1 -27 -3 -35
-9z"/>
<path d="M2770 1845 c0 -2 14 -11 30 -20 17 -9 30 -11 30 -6 0 6 -9 15 -19 21
-21 11 -41 13 -41 5z"/>
<path d="M3241 1832 c-7 -13 -11 -28 -8 -35 2 -7 9 -2 16 11 7 13 11 28 8 35
-2 7 -9 2 -16 -11z"/>
<path d="M2531 1792 c-7 -13 -10 -31 -8 -40 3 -13 7 -10 16 12 15 37 9 59 -8
28z"/>
<path d="M2879 1780 c13 -11 28 -20 35 -20 6 1 0 10 -13 20 -13 11 -28 20 -35
20 -6 -1 0 -10 13 -20z"/>
<path d="M3163 1760 c-13 -5 -23 -12 -23 -16 0 -8 53 5 65 17 12 12 -12 11
-42 -1z"/>
<path d="M2950 1750 c0 -9 25 -20 46 -20 9 0 13 4 10 9 -7 11 -56 21 -56 11z"/>
<path d="M3050 1730 c0 -5 11 -10 24 -10 14 0 28 5 31 10 4 6 -7 10 -24 10
-17 0 -31 -4 -31 -10z"/>
<path d="M2531 1700 c0 -16 22 -50 33 -50 11 0 6 14 -14 40 -13 16 -20 20 -19
10z"/>
<path d="M2590 1625 c0 -2 14 -11 30 -20 17 -9 30 -11 30 -6 0 6 -9 15 -19 21
-21 11 -41 13 -41 5z"/>
<path d="M2680 1582 c0 -8 43 -32 55 -32 15 0 1 19 -20 28 -31 14 -35 15 -35
4z"/>
<path d="M2767 1533 c-4 -6 5 -21 18 -33 29 -27 33 -13 7 21 -11 13 -21 18
-25 12z"/>
<path d="M2820 1445 c0 -12 24 -55 32 -55 11 0 10 4 -4 35 -9 21 -28 35 -28
20z"/>
<path d="M2858 1355 c-7 -8 3 -54 13 -61 11 -7 12 36 1 54 -5 7 -11 10 -14 7z"/>
<path d="M2868 1230 c-3 -19 -1 -29 6 -27 14 4 21 57 8 57 -5 0 -12 -14 -14
-30z"/>
<path d="M2809 1150 c-18 -15 -20 -19 -8 -20 9 0 24 9 34 20 23 26 4 26 -26 0z"/>
<path d="M2718 1113 c-10 -2 -18 -9 -18 -15 0 -6 10 -8 23 -4 12 3 25 6 30 6
4 0 7 5 7 10 0 10 -12 11 -42 3z"/>
<path d="M2410 1090 c-8 -5 -12 -11 -10 -14 8 -7 60 6 60 15 0 12 -31 11 -50
-1z"/>
<path d="M2500 1090 c0 -5 14 -10 31 -10 17 0 28 4 24 10 -3 6 -17 10 -31 10
-13 0 -24 -4 -24 -10z"/>
<path d="M2610 1090 c-11 -7 -7 -10 18 -10 17 0 32 5 32 10 0 13 -30 13 -50 0z"/>
<path d="M2340 1045 c-13 -14 -21 -27 -18 -30 2 -3 15 6 28 20 13 14 21 27 18
30 -2 3 -15 -6 -28 -20z"/>
<path d="M2290 966 c-12 -33 -13 -46 -1 -46 9 0 24 60 16 68 -2 3 -9 -7 -15
-22z"/>
<path d="M2224 903 c7 -24 25 -106 26 -115 0 -5 -65 -8 -144 -8 -118 0 -147
-3 -160 -16 -14 -13 -16 -57 -16 -324 0 -267 2 -311 16 -324 14 -14 69 -16
455 -16 285 0 447 4 460 10 18 10 19 25 19 330 0 305 -1 320 -19 330 -12 6
-130 10 -313 10 l-293 0 53 46 c28 25 52 49 52 54 0 7 -104 40 -129 40 -7 0
-10 -7 -7 -17z m636 -169 c6 -14 10 -36 10 -50 l0 -24 -460 0 -460 0 0 44 c0
26 5 46 13 49 6 3 209 6 450 6 l437 1 10 -26z m0 -353 c0 -218 -2 -250 -16
-255 -20 -8 -858 -8 -878 0 -14 5 -16 37 -16 255 l0 249 455 0 455 0 0 -249z"/>
<path d="M2000 725 c-25 -30 15 -70 45 -45 19 16 19 25 -1 44 -19 20 -28 20
-44 1z m30 -21 c0 -8 -5 -12 -10 -9 -6 4 -8 11 -5 16 9 14 15 11 15 -7z"/>
<path d="M2083 733 c-18 -7 -16 -50 2 -57 24 -9 45 4 45 29 0 18 -22 40 -33
34 -1 0 -8 -3 -14 -6z m23 -40 c-10 -10 -19 5 -10 18 6 11 8 11 12 0 2 -7 1
-15 -2 -18z"/>
<path d="M2156 725 c-12 -12 -13 -21 -6 -36 13 -23 33 -25 51 -3 9 11 10 20 3
32 -15 23 -29 25 -48 7z m29 -14 c3 -5 1 -12 -5 -16 -5 -3 -10 1 -10 9 0 18 6
21 15 7z"/>
<path d="M2252 430 l-43 -50 30 -39 c37 -46 60 -66 67 -58 4 3 -11 26 -31 51
l-37 46 36 40 c34 38 45 60 29 60 -5 0 -27 -23 -51 -50z"/>
<path d="M2397 385 c-51 -104 -52 -105 -37 -105 10 0 100 171 100 190 0 28
-20 1 -63 -85z"/>
<path d="M2500 474 c0 -4 16 -26 35 -50 19 -23 35 -45 35 -48 0 -3 -16 -24
-36 -46 -46 -51 -36 -66 12 -19 60 57 60 63 14 119 -38 45 -60 61 -60 44z"/>
</g>
</svg>
