<?xml version="1.0" standalone="no"?>
<!DOCTYPE svg PUBLIC "-//W3C//DTD SVG 20010904//EN"
 "http://www.w3.org/TR/2001/REC-SVG-20010904/DTD/svg10.dtd">
<svg version="1.0" xmlns="http://www.w3.org/2000/svg"
 width="500.000000pt" height="500.000000pt" viewBox="0 0 500.000000 500.000000"
 preserveAspectRatio="xMidYMid meet">

<g transform="translate(0.000000,500.000000) scale(0.100000,-0.100000)"
fill="#000000" stroke="none">
<path d="M2335 3435 c-83 -18 -140 -45 -210 -98 -134 -101 -207 -251 -207
-422 0 -179 80 -334 224 -435 97 -68 183 -95 308 -94 116 0 199 22 282 76 162
105 248 263 248 455 0 208 -110 384 -295 473 -122 59 -227 72 -350 45z m278
-148 c126 -58 205 -155 233 -288 19 -90 8 -185 -32 -267 -35 -73 -120 -156
-191 -190 -53 -24 -69 -27 -173 -27 -104 0 -121 3 -172 27 -253 118 -315 462
-120 657 88 88 177 122 307 118 73 -2 101 -8 148 -30z"/>
<path d="M2338 3277 c-104 -39 -191 -119 -236 -215 -22 -48 -26 -71 -26 -147
0 -76 4 -99 26 -148 35 -75 116 -160 187 -194 50 -25 67 -28 161 -28 96 0 110
2 163 30 158 79 245 261 203 425 -30 115 -107 208 -215 258 -67 32 -202 41
-263 19z m350 -285 c24 -80 7 -176 -43 -237 -18 -21 -27 -27 -35 -19 -8 8 -3
23 19 55 54 77 53 170 -5 254 -13 20 -21 41 -17 48 10 16 67 -55 81 -101z"/>
<path d="M3188 3098 c-9 -7 -18 -20 -19 -28 -4 -19 10 -60 20 -60 20 0 -38
-273 -82 -391 -87 -230 -251 -444 -436 -568 -233 -158 -541 -243 -879 -245
-146 -1 -164 1 -173 17 -11 20 -59 23 -77 5 -15 -15 -15 -61 0 -76 16 -16 53
-15 67 2 9 11 47 14 169 14 659 2 1142 287 1348 797 41 102 88 280 99 374 5
41 14 70 26 82 25 25 24 54 -3 73 -27 19 -39 20 -60 4z"/>
<path d="M3340 2065 l0 -565 65 0 65 0 0 565 0 565 -65 0 -65 0 0 -565z"/>
<path d="M1941 2476 l-74 -74 28 -36 c15 -20 33 -36 39 -36 6 0 44 33 84 73
l72 73 -38 37 -38 37 -73 -74z"/>
<path d="M1673 2277 c-77 -77 -135 -143 -138 -158 -8 -31 16 -83 44 -99 11 -5
36 -10 56 -10 34 0 48 11 166 127 71 69 129 131 129 137 0 7 -28 40 -63 74
l-62 62 -132 -133z"/>
<path d="M3030 1790 l0 -290 70 0 70 0 0 290 0 290 -70 0 -70 0 0 -290z"/>
<path d="M2720 1670 l0 -170 70 0 70 0 0 170 0 170 -70 0 -70 0 0 -170z"/>
<path d="M2410 1620 l0 -120 70 0 70 0 0 120 0 120 -70 0 -70 0 0 -120z"/>
<path d="M2110 1585 l0 -85 70 0 70 0 0 85 0 85 -70 0 -70 0 0 -85z"/>
<path d="M1800 1550 l0 -50 70 0 70 0 0 50 0 50 -70 0 -70 0 0 -50z"/>
</g>
</svg>
